SplineFontDB: 3.2
FontName: LorenaCvija
FullName: LorenaCvija
FamilyName: LorenaCvija
Weight: Regular
Copyright: Copyright (c) 2024, loren
UComments: "2024-3-17: Created with FontForge (http://fontforge.org)"
Version: 001.000
ItalicAngle: 0
UnderlinePosition: -100
UnderlineWidth: 50
Ascent: 800
Descent: 200
InvalidEm: 0
LayerCount: 2
Layer: 0 0 "Back" 1
Layer: 1 0 "Fore" 0
XUID: [1021 86 1730161006 495]
OS2Version: 0
OS2_WeightWidthSlopeOnly: 0
OS2_UseTypoMetrics: 1
CreationTime: 1710708138
ModificationTime: 1710789828
OS2TypoAscent: 0
OS2TypoAOffset: 1
OS2TypoDescent: 0
OS2TypoDOffset: 1
OS2TypoLinegap: 0
OS2WinAscent: 0
OS2WinAOffset: 1
OS2WinDescent: 0
OS2WinDOffset: 1
HheadAscent: 0
HheadAOffset: 1
HheadDescent: 0
HheadDOffset: 1
OS2Vendor: 'PfEd'
MarkAttachClasses: 1
DEI: 91125
Encoding: iso8859-2
UnicodeInterp: none
NameList: AGL For New Fonts
DisplaySize: -48
AntiAlias: 1
FitToEm: 0
WinInfo: 0 39 14
BeginPrivate: 0
EndPrivate
BeginChars: 256 80

StartChar: A
Encoding: 65 65 0
Width: 459
Flags: HW
LayerCount: 2
Fore
SplineSet
200 202 m 1
 252 260 l 1
 300 202 l 1
 250 400 l 1
 200 202 l 1
0 0 m 1
 250 801 l 1
 459 0 l 1
 248 199 l 1
 0 0 l 1
EndSplineSet
EndChar

StartChar: B
Encoding: 66 66 1
Width: 496
Flags: HW
LayerCount: 2
Fore
SplineSet
-102 56 m 29
 -102 56 -2 -2 0 0 c 12
 2 2 72 110 74 108 c 4
 76 106 -33 76 -102 56 c 29
-102 714 m 29
 -102 714 72 698 74 698 c 12
 76 698 -2 796 0 800 c 4
 2 804 -62 748 -102 714 c 29
74 108 m 5
 255 170 l 29
 76 300 l 5
 74 108 l 5
74 500 m 5
 259 581 l 29
 74 698 l 5
 74 500 l 5
0 0 m 5
 0 0 -3 800 0 800 c 4
 3 800 393 582 393 582 c 5
 203 390 l 5
 427 160 l 5
 0 0 l 5
EndSplineSet
EndChar

StartChar: D
Encoding: 68 68 2
Width: 598
InSpiro: 1
Flags: HW
LayerCount: 2
Fore
SplineSet
-8 102 m 0
 90 2 l 0
 192 204 l 0
 -8 102 l 0
  Spiro
    -8 102 ]
    90 2 ]
    192 204 ]
    0 0 z
  EndSpiro
-10 728 m 0
 192 604 l 0
 100 802 l 0
 -10 728 l 0
  Spiro
    -10 728 ]
    192 604 ]
    100 802 ]
    0 0 z
  EndSpiro
199 202 m 25
 399 400 l 25
 199 604 l 25
 199 202 l 25
  Spiro
    199 202 v
    399 400 v
    199 604 v
    0 0 z
  EndSpiro
100 2 m 9
 100 2 101 802 100 802 c 8
 99 802 599 400 599 400 c 25
 100 2 l 9
  Spiro
    100 2 v
    100.222 209.052 o
    100.444 594.948 o
    100 802 o
    228.704 697.956 o
    469.629 504.044 o
    599 400 v
    0 0 z
  EndSpiro
EndSplineSet
EndChar

StartChar: E
Encoding: 69 69 3
Width: 506
Flags: HW
LayerCount: 2
Fore
SplineSet
-121 72 m 29
 -121 72 3 0 0 0 c 8
 -3 0 141 102 141 100 c 0
 141 98 -19 83 -121 72 c 29
-93 560 m 25
 -93 560 137 636 138 635 c 8
 139 634 1 792 -1 796 c 0
 -3 800 -57 652 -93 560 c 25
499 0 m 1
 499 0 1 -2 0 0 c 0
 -1 2 0 796 -1 796 c 0
 -2 796 506 798 506 798 c 1
 138 635 l 1
 138 502 l 1
 459 398 l 25
 139 300 l 1
 141 100 l 25
 499 0 l 1
EndSplineSet
EndChar

StartChar: F
Encoding: 70 70 4
Width: 506
Flags: HW
LayerCount: 2
Fore
SplineSet
-102 670 m 29
 -102 670 144 402 139 400 c 8
 134 398 204 568 197 572 c 0
 190 576 15 632 -102 670 c 29
0 0 m 9
 0 0 1 800 0 800 c 8
 -1 800 515 698 506 698 c 8
 497 698 197 572 197 572 c 25
 449 494 l 25
 139 400 l 25
 139 0 l 25
 0 0 l 9
EndSplineSet
EndChar

StartChar: C
Encoding: 67 67 5
Width: 506
Flags: HW
LayerCount: 2
Fore
SplineSet
478 519 m 4
 477.290052747 515.859848687 320.025559648 832.058505104 150 573 c 4
 65.1840912643 443.770708994 146.408292618 119.050781401 312 127 c 4
 471.828665507 134.672564167 502 262 502 262 c 5
 502 262 523.875638755 135.400656674 488 84 c 4
 459.075504958 42.5585625593 303.76815313 -49.7941546321 173 34 c 4
 -97.2007908386 207.140373304 0 637 134 740 c 4
 333.717229361 893.513989733 530 749 478 519 c 4
EndSplineSet
EndChar

StartChar: H
Encoding: 72 72 6
Width: 502
Flags: HW
LayerCount: 2
Fore
SplineSet
502 0 m 9
 400 800 l 25
 400 800 302 -4 302 0 c 0
 302 4 502 0 502 0 c 9
0 0 m 9
 100 802 l 17
 145.613512935 428.000005745 l 1
 522 390 l 0
 157.827436612 328.000002601 l 1
 157.827436612 328.000002601 198 -0.718212232703 198 0 c 0
 198 2 0 0 0 0 c 9
EndSplineSet
EndChar

StartChar: I
Encoding: 73 73 7
Width: 200
Flags: HW
LayerCount: 2
Fore
SplineSet
0 0 m 13
 97 800 l 29
 197 0 l 29
 0 0 l 13
EndSplineSet
EndChar

StartChar: K
Encoding: 75 75 8
Width: 500
Flags: HW
LayerCount: 2
Fore
SplineSet
161.747969118 295.000003 m 13
 161.747969118 295.000003 193 365 193 371 c 12
 193 377 61.7183979975 467 58.3591989987 471 c 4
 55 475 161.747969118 295.000003 161.747969118 295.000003 c 13
193 371 m 13
 193 371 143.508329041 441.000011405 143.254164521 443.000005703 c 12
 143 445 33.1827284105 261 32.0913642053 259 c 4
 31 257 193 371 193 371 c 13
0 0 m 5
 32.0913642053 259 l 4
 58.3591989987 471 l 4
 99 799 l 5
 143.254164521 443.000005703 l 5
 393 805 l 4
 193 371 l 4
 500 0 l 4
 161.747969118 295.000003 l 5
 161.747969118 295.000003 199 -2.31452023362 199 0 c 4
 199 7 0 0 0 0 c 5
EndSplineSet
EndChar

StartChar: L
Encoding: 76 76 9
Width: 486
Flags: HW
LayerCount: 2
Fore
SplineSet
0 0 m 9
 0 0 186.297498797 98.0000076629 186.148749399 102.000003831 c 8
 186 106 -76 164 -76 164 c 25
 0 0 l 9
0 0 m 9
 99 800 l 17
 186.148749399 102.000003831 l 1
 499 0 l 1
 499 0 199 -0.245486604828 199 0 c 0
 199 2 0 0 0 0 c 9
EndSplineSet
EndChar

StartChar: M
Encoding: 77 77 10
Width: 504
Flags: HW
LayerCount: 2
Fore
SplineSet
251 300 m 13
 251 300 152 238 158 242 c 8
 164 246 323.796697521 145.999995417 324.89834876 149.999997709 c 0
 326 154 251 300 251 300 c 13
340 242 m 9
 340 242 250 296 251 300 c 8
 252 304 170.666666667 142 174.333333333 144 c 0
 178 146 340 242 340 242 c 9
340 242 m 9
 252 194 l 25
 158 242 l 17
 174.333333333 144 l 0
 198 2 l 9
 198 2 298 -2 300 0 c 0
 301.408352895 1.40835289547 324.89834876 149.999997709 324.89834876 149.999997709 c 1
 324.89834876 149.999997709 335.266823164 214.192586087 340 242 c 9
497 0 m 1032
0 0 m 9
 97 798 l 1
 97 798 251 296 251 300 c 8
 251 304 399 796 399 796 c 1
 497 0 l 17
 300 0 l 0
 0 0 l 9
EndSplineSet
EndChar

StartChar: N
Encoding: 78 78 11
Width: 500
Flags: HW
LayerCount: 2
Fore
SplineSet
52 602 m 25
 52 602 398 1 398 0 c 8
 398 -1 96 797 98 800 c 0
 100 803 70 679 52 602 c 25
300 800 m 25
 300 800 398 -6 398 0 c 0
 398 6 498 800 498 800 c 1
 300 800 l 25
0 0 m 1
 98 800 l 25
 98 800 196 -6 196 0 c 0
 196 6 0 0 0 0 c 1
EndSplineSet
EndChar

StartChar: P
Encoding: 80 80 12
Width: 466
Flags: HW
LayerCount: 2
Fore
SplineSet
165 744 m 5
 187 568 l 5
 344 670 l 29
 165 744 l 5
0 798 m 5
 123 614 l 5
 123 614 99 796 99 800 c 4
 99 804 0 798 0 798 c 5
99 800 m 5
 458 678 l 5
 141 448 l 5
 99 800 l 5
0 0 m 13
 99 800 l 29
 99 800 201 -2 201 0 c 4
 201 2 0 0 0 0 c 13
EndSplineSet
EndChar

StartChar: R
Encoding: 82 82 13
Width: 466
Flags: HW
LayerCount: 2
Fore
SplineSet
350 0 m 1
 350 0 460 4 466 0 c 0
 472 -4 -4 637 0 637 c 0
 4 637 350 0 350 0 c 1
165 744 m 1
 187 568 l 1
 344 670 l 25
 165 744 l 1
0 798 m 1
 123 614 l 1
 123 614 99 796 99 800 c 0
 99 804 0 798 0 798 c 1
99 800 m 1
 458 678 l 1
 141 448 l 1
 99 800 l 1
0 0 m 9
 99 800 l 25
 99 800 201 -2 201 0 c 0
 201 2 0 0 0 0 c 9
EndSplineSet
EndChar

StartChar: O
Encoding: 79 79 14
Width: 504
Flags: HW
LayerCount: 2
Fore
SplineSet
249 200 m 4
 236.043310551 201.060282282 98 207 104 401 c 12
 110 595 243.348980568 603.25686452 249 603 c 4
 271 602 388.192781151 625.959265318 400 400 c 4
 411.808393613 174.018252772 252.027499649 199.752251202 249 200 c 4
250 796 m 4
 128 796 14 743 0 400 c 4
 -13.453237714 70.3956760068 167.361586995 0 246 0 c 4
 327 0 518.691332626 4.44360749103 500 398 c 4
 482 777 372 796 250 796 c 4
EndSplineSet
EndChar

StartChar: V
Encoding: 86 86 15
Width: 459
Flags: HW
LayerCount: 2
Fore
SplineSet
459 801 m 5
 211 602 l 5
 0 801 l 5
 209 401 l 5
 459 801 l 5
459 801 m 5
 209 0 l 5
 0 801 l 5
 211 602 l 5
 459 801 l 5
EndSplineSet
EndChar

StartChar: J
Encoding: 74 74 16
Width: 348
Flags: HW
LayerCount: 2
Fore
SplineSet
36 346 m 13
 36 346 148 -4 149 0 c 4
 150 4 348 0 346 0 c 4
 344 0 36 346 36 346 c 13
149 0 m 13
 246 800 l 29
 346 0 l 29
 149 0 l 13
EndSplineSet
EndChar

StartChar: Cacute
Encoding: 198 262 17
Width: 611
Flags: HW
LayerCount: 2
Fore
SplineSet
405 695 m 5
 405 695 615 797 606 797 c 4
 597 797 477 796 477 796 c 5
 405 695 l 5
583.262695312 393 m 4
 582.552734375 389.859375 425.288085938 706.05859375 255.262695312 447 c 4
 170.447265625 317.770507812 251.671886176 119.050548453 417.262695312 127 c 4
 577.091796875 134.672851562 607.262695312 262 607.262695312 262 c 5
 607.262695312 262 629.138671875 135.400390625 593.262695312 84 c 4
 564.338867188 42.55859375 409.030898798 -49.7944933953 278.262695312 34 c 4
 8.0625 207.140625 105.262695312 511 239.262695312 614 c 4
 438.979492188 767.513671875 635.262695312 623 583.262695312 393 c 4
EndSplineSet
EndChar

StartChar: Ccaron
Encoding: 200 268 18
Width: 611
Flags: HW
LayerCount: 2
Fore
SplineSet
427 692 m 5
 198 796 l 5
 339 796 l 5
 427 692 l 5
369 695 m 5
 369 695 579 797 570 797 c 4
 561 797 441 796 441 796 c 5
 369 695 l 5
583.262695312 393 m 0
 582.552734375 389.859375 425.288085938 706.05859375 255.262695312 447 c 0
 170.447265625 317.770507812 251.671886176 119.050548453 417.262695312 127 c 0
 577.091796875 134.672851562 607.262695312 262 607.262695312 262 c 1
 607.262695312 262 629.138671875 135.400390625 593.262695312 84 c 0
 564.338867188 42.55859375 409.030898798 -49.7944933953 278.262695312 34 c 0
 8.0625 207.140625 105.262695312 511 239.262695312 614 c 0
 438.979492188 767.513671875 635.262695312 623 583.262695312 393 c 0
EndSplineSet
EndChar

StartChar: G
Encoding: 71 71 19
Width: 506
Flags: HW
LayerCount: 2
Fore
SplineSet
311 320 m 29
 509 184 l 25
 509 184 507 340 506 340 c 0
 505 340 387 328 311 320 c 29
478 519 m 0
 477.290052747 515.859848687 320.025559648 832.058505104 150 573 c 0
 65.1840912643 443.770708994 146.408292618 119.050781401 312 127 c 0
 471.828665507 134.672564167 502 262 502 262 c 1
 502 262 523.875638755 135.400656674 488 84 c 0
 459.075504958 42.5585625593 303.76815313 -49.7941546321 173 34 c 0
 -97.2007908386 207.140373304 0 637 134 740 c 0
 333.717229361 893.513989733 530 749 478 519 c 0
EndSplineSet
EndChar

StartChar: S
Encoding: 83 83 20
Width: 522
Flags: HW
LayerCount: 2
Fore
SplineSet
497 637 m 4
 499.722345958 675.112843406 411.047052312 800 241 800 c 4
 10 800 0 622 0 598 c 4
 0 574 -27 420 217 388 c 4
 461 356 371.98046875 228.458984375 385 256 c 4
 397.577148438 282.60546875 344.996123973 115.875484503 216 132 c 4
 72 150 73.38671875 186.5625 65 228 c 4
 57.4287109375 265.407226562 19 255 11 244 c 4
 -18.9507467847 202.817723171 -9 0 259 0 c 4
 527 0 525 286 513 280 c 4
 513 280 531.030273438 391.095703125 305 463 c 4
 78.8017578125 534.95703125 92 601 114 647 c 4
 139.250285604 699.796051717 241.086914062 773.696289062 399 607 c 4
 448.696289062 554.5390625 495 609 497 637 c 4
EndSplineSet
EndChar

StartChar: Dcroat
Encoding: 208 272 21
Width: 598
Flags: HW
LayerCount: 2
Fore
SplineSet
249 400 m 29
 249 400 3 500 0 500 c 8
 -3 500 3 300 0 300 c 0
 -3 300 152 361 249 400 c 29
-8 102 m 0
 90 2 l 0
 192 204 l 0
 -8 102 l 0
  Spiro
    -8 102 ]
    90 2 ]
    192 204 ]
    0 0 z
  EndSpiro
-10 728 m 0
 192 604 l 0
 100 802 l 0
 -10 728 l 0
  Spiro
    -10 728 ]
    192 604 ]
    100 802 ]
    0 0 z
  EndSpiro
199 202 m 25
 399 400 l 25
 199 604 l 25
 199 202 l 25
  Spiro
    199 202 v
    399 400 v
    199 604 v
    0 0 z
  EndSpiro
100 2 m 9
 100 2 101 802 100 802 c 8
 99 802 599 400 599 400 c 25
 100 2 l 9
  Spiro
    100 2 v
    100.222 209.052 o
    100.444 594.948 o
    100 802 o
    228.704 697.956 o
    469.629 504.044 o
    599 400 v
    0 0 z
  EndSpiro
EndSplineSet
EndChar

StartChar: Zcaron
Encoding: 174 381 22
Width: 500
Flags: HW
LayerCount: 2
Fore
SplineSet
297 695 m 5
 68 799 l 5
 209 799 l 5
 297 695 l 5
239 698 m 5
 239 698 449 800 440 800 c 4
 431 800 311 799 311 799 c 5
 239 698 l 5
0 0 m 13
 0 0 501 -2 500 0 c 12
 499 2 501 102 500 102 c 4
 499 102 0 0 0 0 c 13
3 685 m 13
 3 685 4 589 3 589 c 12
 2 589 500 687 500 683 c 4
 500 679 3 685 3 685 c 13
0 0 m 5
 500 683 l 29
 199 0 l 5
 0 0 l 5
EndSplineSet
EndChar

StartChar: Z
Encoding: 90 90 23
Width: 500
Flags: HW
LayerCount: 2
Fore
SplineSet
0 0 m 13
 0 0 501 -2 500 0 c 12
 499 2 501 102 500 102 c 4
 499 102 0 0 0 0 c 13
0 800 m 13
 0 800 1 704 0 704 c 12
 -1 704 497 802 497 798 c 4
 497 794 0 800 0 800 c 13
0 0 m 13
 497 798 l 29
 199 0 l 29
 0 0 l 13
EndSplineSet
EndChar

StartChar: Scaron
Encoding: 169 352 24
Width: 522
Flags: HW
LayerCount: 2
Fore
SplineSet
300 734 m 1
 64 800 l 5
 205 800 l 5
 300 734 l 1
242 737 m 1
 242 737 445 801 436 801 c 4
 427 801 307 800 307 800 c 5
 242 737 l 1
474 563 m 0
 477.596679688 602.649414062 409.510782369 742.4165809 221 724 c 0
 59.404296875 708.212890625 -8.01837316238 606.411150692 0 525 c 0
 6.1435546875 462.624023438 12 389 196.0703125 324.731445312 c 0
 426.43465853 244.29922694 343.98046875 164.458984375 357 192 c 0
 369.577148438 218.60546875 344.996123973 115.875484503 216 132 c 0
 72 150 73.38671875 186.5625 65 228 c 0
 57.4287109375 265.407226562 19 255 11 244 c 0
 -18.9507467847 202.817723171 -9 0 259 0 c 0
 527 0 523 224 511 218 c 0
 511 218 529.030475362 329.096337877 303 401 c 0
 76.8017578125 472.95703125 101.346343487 535.933120062 127 580 c 0
 152.25000332 623.373499765 265.09706073 712.965748886 397 545 c 0
 422.944323578 511.962390957 471.432617188 534.694335938 474 563 c 0
EndSplineSet
EndChar

StartChar: i
Encoding: 105 105 25
Width: 106
Flags: HW
LayerCount: 2
Fore
SplineSet
0 0 m 9
 0 0 112 -2 106 0 c 8
 100 2 52 398 52 398 c 25
 0 0 l 9
50 416 m 5
 50 416 1 504 0 504 c 4
 -1 504 100 504 100 504 c 5
 50 416 l 5
EndSplineSet
EndChar

StartChar: T
Encoding: 84 84 26
Width: 402
Flags: HW
LayerCount: 2
Fore
SplineSet
0 802 m 13
 0 802 1 598 0 598 c 8
 -1 598 405 700 402 700 c 0
 399 700 0 802 0 802 c 13
102 0 m 9
 199 800 l 25
 299 0 l 25
 102 0 l 9
EndSplineSet
EndChar

StartChar: U
Encoding: 85 85 27
Width: 512
Flags: HW
LayerCount: 2
Fore
SplineSet
0 800 m 5
 0 800 -21 0 249 0 c 12
 519 0 503 658 499 802 c 4
 495 946 416.456958628 136.432119828 237 114 c 4
 173 106 0 800 0 800 c 5
EndSplineSet
EndChar

StartChar: Q
Encoding: 81 81 28
Width: 504
Flags: HW
LayerCount: 2
Fore
SplineSet
443 0 m 13
 321 274 l 25
 321 274 505 82 504 82 c 0
 503 82 443 0 443 0 c 13
249 200 m 0
 236.043310551 201.060282282 98 207 104 401 c 8
 110 595 243.348980568 603.25686452 249 603 c 0
 271 602 388.192781151 625.959265318 400 400 c 0
 411.808393613 174.018252772 252.027499649 199.752251202 249 200 c 0
250 796 m 0
 128 796 14 743 0 400 c 0
 -13.453237714 70.3956760068 167.361586995 0 246 0 c 0
 327 0 518.691332626 4.44360749103 500 398 c 0
 482 777 372 796 250 796 c 0
EndSplineSet
EndChar

StartChar: W
Encoding: 87 87 29
Width: 649
Flags: HW
LayerCount: 2
Fore
SplineSet
647 801 m 5
 399 602 l 5
 321 690 l 5
 397 401 l 5
 647 801 l 5
647 801 m 5
 397 0 l 5
 321 690 l 5
 399 602 l 5
 647 801 l 5
321 690 m 5
 211 602 l 5
 0 801 l 5
 209 401 l 5
 321 690 l 5
321 690 m 5
 209 0 l 5
 0 801 l 5
 211 602 l 5
 321 690 l 5
EndSplineSet
EndChar

StartChar: a
Encoding: 97 97 30
Width: 400
Flags: HW
LayerCount: 2
Fore
SplineSet
119.53515625 164.262695312 m 0
 163.248046875 182.384765625 238.579101562 159.770507812 246.28515625 82.400390625 c 0
 247.974609375 65.4375 141.87109375 52.6630859375 103 77 c 0
 83.763671875 89.0439453125 85.734375 150.25 119.53515625 164.262695312 c 0
19.8251953125 289.637695312 m 1
 19.8251953125 289.637695312 16.4443359375 401.73828125 18.134765625 401.73828125 c 0
 19.8251953125 401.73828125 117 401 117 401 c 25
 19.8251953125 289.637695312 l 1
249.665039062 400.262695312 m 1
 249.665039062 400.262695312 397.979492188 -0.5 397.979492188 0.9755859375 c 0
 397.979492188 2.4501953125 18.134765625 401.73828125 18.134765625 401.73828125 c 1
 249.665039062 400.262695312 l 1
168.544921875 254.23828125 m 0
 99.2548828125 260.137695312 0 248.900390625 0 125 c 8
 0 1.1005859375 107.299804688 0.9755859375 158 0.9755859375 c 0
 208.700195312 0.9755859375 339.234375 16.7626953125 325.71484375 105.262695312 c 0
 312.194335938 193.762695312 237.834960938 248.338867188 168.544921875 254.23828125 c 0
EndSplineSet
EndChar

StartChar: b
Encoding: 98 98 31
Width: 404
Flags: HW
LayerCount: 2
Fore
SplineSet
0 0 m 9
 49 800 l 25
 49 800 97 -2 97 0 c 0
 97 2 0 0 0 0 c 9
205.099609375 105 m 0
 194.993164062 105.551757812 108.3203125 100.719726562 113 201.599609375 c 0
 117.6796875 302.48046875 202.692382812 302.693359375 207.099609375 302.559570312 c 0
 224.259765625 302.040039062 315.669921875 314.499023438 324.879882812 197 c 0
 334.08984375 79.4892578125 207.4609375 104.87109375 205.099609375 105 c 0
207.879882812 402.919921875 m 0
 112.719726562 402.919921875 42.7998046875 379.440429688 31.8798828125 201.080078125 c 0
 21.38671875 29.685546875 141.421875 1 202.759765625 1 c 0
 265.939453125 1 417.458984375 -8.689453125 402.879882812 195.959960938 c 0
 388.83984375 393.040039062 303.040039062 402.919921875 207.879882812 402.919921875 c 0
EndSplineSet
EndChar

StartChar: o
Encoding: 111 111 32
Width: 374
Flags: HW
LayerCount: 2
Fore
SplineSet
175.219726562 105 m 4
 165.11328125 105.551757812 78.4404296875 100.719726562 83.1201171875 201.599609375 c 4
 87.7998046875 302.48046875 172.8125 302.693359375 177.219726562 302.559570312 c 4
 194.379882812 302.040039062 285.790039062 314.499023438 295 197 c 4
 304.209960938 79.4892578125 177.581054688 104.87109375 175.219726562 105 c 4
178 402.919921875 m 4
 82.83984375 402.919921875 12.919921875 379.440429688 2 201.080078125 c 4
 -8.4931640625 29.685546875 111.541992188 1 172.879882812 1 c 4
 236.059570312 1 387.579101562 -8.689453125 373 195.959960938 c 4
 358.959960938 393.040039062 273.16015625 402.919921875 178 402.919921875 c 4
EndSplineSet
EndChar

StartChar: r
Encoding: 114 114 33
Width: 280
Flags: HW
LayerCount: 2
Fore
SplineSet
24.99 196 m 1
 201 288 l 1
 201 288 201 284 201 288 c 0
 201 292 271 272 271 276 c 0
 271 280 225 372 225 372 c 1
 24.99 196 l 1
0 0 m 5
 24.99 196 l 0
 51 400 l 13
 99 0 l 29
 0 0 l 5
EndSplineSet
EndChar

StartChar: e
Encoding: 101 101 34
Width: 348
Flags: HW
LayerCount: 2
Fore
SplineSet
196 354 m 0
 182 352 127 338 120 291 c 8
 113 244 275 198 288 233 c 0
 301 268 210 356 196 354 c 0
194 0 m 0
 103.330078125 -0.001953125 21 24 0 174 c 0
 -21 324 115 398 199 400 c 8
 283 402 369 280 339 200 c 0
 309 120 99.0193669264 186.431767716 91 219 c 0
 90.5827741061 220.694436725 83.9814453125 17.2021484375 298 65 c 0
 360.07421875 78.86328125 294.029296875 0.001953125 194 0 c 0
EndSplineSet
EndChar

StartChar: n
Encoding: 110 110 35
Width: 352
Flags: HW
LayerCount: 2
Fore
SplineSet
24.99 196 m 13
 277 294 l 29
 277 294 249 -4 249 0 c 12
 249 4 351 -4 351 0 c 12
 351 4 299 398 299 398 c 29
 24.99 196 l 13
0 0 m 5
 24.99 196 l 4
 51 400 l 13
 99 0 l 29
 0 0 l 5
EndSplineSet
EndChar

StartChar: v
Encoding: 118 118 36
Width: 311
Flags: HW
LayerCount: 2
Fore
SplineSet
317.4453125 402 m 1
 145.927734375 300.033203125 l 1
 0 402 l 1
 144.544921875 197.040039062 l 1
 317.4453125 402 l 1
317.4453125 402 m 1
 143 0 l 1
 0 402 l 1
 145.927734375 300.033203125 l 1
 317.4453125 402 l 1
EndSplineSet
EndChar

StartChar: j
Encoding: 106 106 37
Width: 225
Flags: HW
LayerCount: 2
Fore
SplineSet
148 416 m 5
 148 416 99 504 98 504 c 4
 97 504 198 504 198 504 c 5
 148 416 l 5
7 -52 m 1
 7 -52 119 -206 120 -202 c 0
 121 -198 225 -202 223 -202 c 0
 221 -202 7 -52 7 -52 c 1
120 -202 m 1
 150 400 l 1
 223 -202 l 1
 120 -202 l 1
EndSplineSet
EndChar

StartChar: cacute
Encoding: 230 263 38
Width: 319
Flags: HW
LayerCount: 2
Fore
SplineSet
189 402 m 5
 189 402 313.344726562 461.163085938 308.015625 461.163085938 c 4
 302.686523438 461.163085938 231.6328125 460.583984375 231.6328125 460.583984375 c 5
 189 402 l 5
294.552734375 226.831054688 m 4
 294.131835938 225.009765625 201.013671875 408.416015625 100.338867188 258.15234375 c 4
 50.1181640625 183.1953125 98.212890625 67.931640625 196.26171875 72.54296875 c 4
 290.8984375 76.9921875 308.763671875 150.846679688 308.763671875 150.846679688 c 5
 308.763671875 150.846679688 321.716796875 77.4150390625 300.474609375 47.6015625 c 4
 283.34765625 23.5634765625 180.387695312 -30.0048828125 102.95703125 18.6005859375 c 4
 -57.033203125 119.026367188 0.521484375 295.275390625 79.8642578125 355.018554688 c 4
 198.120117188 444.061523438 325.341796875 360.23828125 294.552734375 226.831054688 c 4
EndSplineSet
EndChar

StartChar: ccaron
Encoding: 232 269 39
Width: 319
Flags: HW
LayerCount: 2
Fore
SplineSet
200.040039062 398.799804688 m 5
 38.5947265625 469 l 5
 138 469 l 5
 200.040039062 398.799804688 l 5
159.150390625 400.825195312 m 5
 159.150390625 400.825195312 307.200195312 469.674804688 300.854492188 469.674804688 c 4
 294.509765625 469.674804688 209.91015625 469 209.91015625 469 c 5
 159.150390625 400.825195312 l 5
294.552734375 226.831054688 m 0
 294.131835938 225.009765625 201.013671875 408.416015625 100.338867188 258.15234375 c 0
 50.1181640625 183.1953125 98.212890625 67.931640625 196.26171875 72.54296875 c 0
 290.8984375 76.9921875 308.763671875 150.846679688 308.763671875 150.846679688 c 1
 308.763671875 150.846679688 321.716796875 77.4150390625 300.474609375 47.6015625 c 0
 283.34765625 23.5634765625 180.387695312 -30.0048828125 102.95703125 18.6005859375 c 0
 -57.033203125 119.026367188 0.521484375 295.275390625 79.8642578125 355.018554688 c 0
 198.120117188 444.061523438 325.341796875 360.23828125 294.552734375 226.831054688 c 0
EndSplineSet
EndChar

StartChar: d
Encoding: 100 100 40
Width: 404
Flags: HW
LayerCount: 2
Fore
SplineSet
299 0 m 29
 349 800 l 29
 349 800 399 -2 399 0 c 4
 399 2 338 0 299 0 c 29
175.219726562 105 m 4
 165.11328125 105.551757812 78.4404296875 100.719726562 83.1201171875 201.599609375 c 4
 87.7998046875 302.48046875 172.8125 302.693359375 177.219726562 302.559570312 c 4
 194.379882812 302.040039062 285.790039062 314.499023438 295 197 c 4
 304.209960938 79.4892578125 177.581054688 104.87109375 175.219726562 105 c 4
178 402.919921875 m 4
 82.83984375 402.919921875 12.919921875 379.440429688 2 201.080078125 c 4
 -8.4931640625 29.685546875 111.541992188 1 172.879882812 1 c 4
 236.059570312 1 387.579101562 -8.689453125 373 195.959960938 c 4
 358.959960938 393.040039062 273.16015625 402.919921875 178 402.919921875 c 4
EndSplineSet
EndChar

StartChar: dcroat
Encoding: 240 273 41
Width: 404
Flags: HW
LayerCount: 2
Fore
SplineSet
201 698 m 1
 197 598 l 1
 197 598 460 650 457 650 c 4
 454 650 280 679 201 698 c 1
299 0 m 25
 349 800 l 25
 349 800 399 -2 399 0 c 0
 399 2 338 0 299 0 c 25
175.219726562 105 m 0
 165.11328125 105.551757812 78.4404296875 100.719726562 83.1201171875 201.599609375 c 0
 87.7998046875 302.48046875 172.8125 302.693359375 177.219726562 302.559570312 c 0
 194.379882812 302.040039062 285.790039062 314.499023438 295 197 c 0
 304.209960938 79.4892578125 177.581054688 104.87109375 175.219726562 105 c 0
178 402.919921875 m 0
 82.83984375 402.919921875 12.919921875 379.440429688 2 201.080078125 c 0
 -8.4931640625 29.685546875 111.541992188 1 172.879882812 1 c 0
 236.059570312 1 387.579101562 -8.689453125 373 195.959960938 c 0
 358.959960938 393.040039062 273.16015625 402.919921875 178 402.919921875 c 0
EndSplineSet
EndChar

StartChar: zcaron
Encoding: 190 382 42
Width: 290
Flags: HW
LayerCount: 2
Fore
SplineSet
166.943359375 408.625 m 5
 40.53515625 466.032226562 l 5
 118.3671875 466.032226562 l 5
 166.943359375 408.625 l 5
134.927734375 410.280273438 m 5
 134.927734375 410.280273438 250.846679688 466.584960938 245.87890625 466.584960938 c 4
 240.912109375 466.584960938 174.671875 466.032226562 174.671875 466.032226562 c 5
 134.927734375 410.280273438 l 5
-1 2.984375 m 13
 -1 2.984375 275.551757812 1.880859375 275 2.984375 c 12
 274.447265625 4.0888671875 275.551757812 59.2880859375 275 59.2880859375 c 4
 274.447265625 59.2880859375 -1 2.984375 -1 2.984375 c 13
4.65625 403.104492188 m 13
 4.65625 403.104492188 5.2080078125 350.112304688 4.65625 350.112304688 c 12
 4.103515625 350.112304688 279 404.208007812 279 402 c 4
 279 399.791992188 4.65625 403.104492188 4.65625 403.104492188 c 13
-1 2.984375 m 5
 279 402 l 29
 108.846679688 2.984375 l 5
 -1 2.984375 l 5
EndSplineSet
EndChar

StartChar: z
Encoding: 122 122 43
Width: 290
Flags: HW
LayerCount: 2
Fore
SplineSet
-1 2.984375 m 9
 -1 2.984375 275.551757812 1.880859375 275 2.984375 c 8
 274.447265625 4.0888671875 275.551757812 59.2880859375 275 59.2880859375 c 0
 274.447265625 59.2880859375 -1 2.984375 -1 2.984375 c 9
4.65625 403.104492188 m 9
 4.65625 403.104492188 5.2080078125 350.112304688 4.65625 350.112304688 c 8
 4.103515625 350.112304688 279 404.208007812 279 402 c 0
 279 399.791992188 4.65625 403.104492188 4.65625 403.104492188 c 9
-1 2.984375 m 1
 279 402 l 25
 108.846679688 2.984375 l 1
 -1 2.984375 l 1
EndSplineSet
EndChar

StartChar: u
Encoding: 117 117 44
Width: 347
Flags: HW
LayerCount: 2
Fore
SplineSet
-3.310546875 400.620117188 m 1
 -3.310546875 400.620117188 -13.2998046875 0 173 0 c 0
 359.299804688 0 343.759765625 302.639648438 341 402 c 0
 338.240234375 501.360351562 288.544678239 94.1396443488 164.719726562 78.66015625 c 0
 120.559570312 73.1396484375 -3.310546875 400.620117188 -3.310546875 400.620117188 c 1
EndSplineSet
EndChar

StartChar: s
Encoding: 115 115 45
Width: 274
Flags: HW
LayerCount: 2
Fore
SplineSet
251.897460938 315.9296875 m 4
 253.267578125 335.119140625 208.619140625 398 123 398 c 4
 6.6923828125 398 1.6572265625 308.376953125 1.6572265625 296.29296875 c 4
 1.6572265625 284.208984375 -11.9375 206.669921875 110.916992188 190.55859375 c 4
 233.770507812 174.446289062 188.94921875 110.229492188 195.504882812 124.096679688 c 4
 201.836914062 137.4921875 175.362304688 53.54296875 110.413085938 61.6611328125 c 4
 37.9091796875 70.724609375 38.607421875 89.134765625 34.384765625 109.997070312 c 4
 30.5732421875 128.83203125 11.2236328125 123.592773438 7.1962890625 118.053710938 c 4
 -7.884765625 97.3193359375 -2.875 -4.80078125 132.063476562 -4.80078125 c 4
 267.000976562 -4.80078125 265.995117188 139.200195312 259.952148438 136.1796875 c 4
 259.952148438 136.1796875 269.03125 192.1171875 155.224609375 228.3203125 c 4
 41.333984375 264.55078125 47.9794921875 297.803710938 59.056640625 320.963867188 c 4
 71.76953125 347.547851562 123.043945312 384.755859375 202.553710938 300.82421875 c 4
 227.575195312 274.41015625 250.889648438 301.83203125 251.897460938 315.9296875 c 4
EndSplineSet
EndChar

StartChar: scaron
Encoding: 185 353 46
Width: 274
Flags: HW
LayerCount: 2
Fore
SplineSet
161.040039062 398.799804688 m 1
 -0.4052734375 469 l 1
 99 469 l 1
 161.040039062 398.799804688 l 1
120.150390625 400.825195312 m 1
 120.150390625 400.825195312 268.200195312 469.674804688 261.854492188 469.674804688 c 0
 255.509765625 469.674804688 170.91015625 469 170.91015625 469 c 1
 120.150390625 400.825195312 l 1
251.897460938 315.9296875 m 0
 253.267578125 335.119140625 208.619140625 398 123 398 c 0
 6.6923828125 398 1.6572265625 308.376953125 1.6572265625 296.29296875 c 0
 1.6572265625 284.208984375 -11.9375 206.669921875 110.916992188 190.55859375 c 0
 233.770507812 174.446289062 188.94921875 110.229492188 195.504882812 124.096679688 c 0
 201.836914062 137.4921875 175.362304688 53.54296875 110.413085938 61.6611328125 c 0
 37.9091796875 70.724609375 38.607421875 89.134765625 34.384765625 109.997070312 c 0
 30.5732421875 128.83203125 11.2236328125 123.592773438 7.1962890625 118.053710938 c 0
 -7.884765625 97.3193359375 -2.875 -4.80078125 132.063476562 -4.80078125 c 0
 267.000976562 -4.80078125 265.995117188 139.200195312 259.952148438 136.1796875 c 0
 259.952148438 136.1796875 269.03125 192.1171875 155.224609375 228.3203125 c 0
 41.333984375 264.55078125 47.9794921875 297.803710938 59.056640625 320.963867188 c 0
 71.76953125 347.547851562 123.043945312 384.755859375 202.553710938 300.82421875 c 0
 227.575195312 274.41015625 250.889648438 301.83203125 251.897460938 315.9296875 c 0
EndSplineSet
EndChar

StartChar: w
Encoding: 119 119 47
Width: 415
Flags: HW
LayerCount: 2
Fore
SplineSet
408.451171875 400 m 1
 251.888671875 302.051757812 l 1
 202.647460938 345.366210938 l 1
 250.625976562 203.120117188 l 1
 408.451171875 400 l 1
408.451171875 400 m 1
 250.625976562 5.748046875 l 1
 202.647460938 345.366210938 l 1
 251.888671875 302.051757812 l 1
 408.451171875 400 l 1
202.647460938 345.366210938 m 1
 133.204101562 302.051757812 l 1
 0 400 l 1
 131.94140625 203.120117188 l 1
 202.647460938 345.366210938 l 1
202.647460938 345.366210938 m 1
 131.94140625 5.748046875 l 1
 0 400 l 1
 133.204101562 302.051757812 l 1
 202.647460938 345.366210938 l 1
EndSplineSet
EndChar

StartChar: p
Encoding: 112 112 48
Width: 360
Flags: HW
LayerCount: 2
Fore
SplineSet
128.700195312 359.879882812 m 1
 145.860351562 222.600585938 l 1
 268.3203125 302.16015625 l 25
 128.700195312 359.879882812 l 1
0 402 m 1
 95.9404296875 258.48046875 l 1
 95.9404296875 258.48046875 77.2197265625 400.440429688 77.2197265625 403.560546875 c 0
 77.2197265625 406.680664062 0 402 0 402 c 1
77.2197265625 403.560546875 m 1
 357.240234375 308.400390625 l 1
 109.98046875 129 l 1
 77.2197265625 403.560546875 l 1
0 -220.439453125 m 9
 77.2197265625 403.560546875 l 25
 77.2197265625 403.560546875 156.780273438 -222 156.780273438 -220.439453125 c 0
 156.780273438 -218.879882812 0 -220.439453125 0 -220.439453125 c 9
EndSplineSet
EndChar

StartChar: k
Encoding: 107 107 49
Width: 350
Flags: HW
LayerCount: 2
Fore
SplineSet
345 0 m 1
 345 0 17.1546134663 296 19.0773067332 300 c 0
 21 304 10.98046875 216 13.990234375 220 c 0
 17 224 345 0 345 0 c 1
297 490 m 1
 297 490 14.9800498753 218 13.9900249377 220 c 0
 13 222 9 138 9 138 c 25
 297 490 l 1
0 0 m 1
 13.9900249377 220 l 0
 19.0773067332 300 l 0
 51 802 l 9
 51 802 97 -4 97 0 c 0
 97 4 0 0 0 0 c 1
EndSplineSet
EndChar

StartChar: l
Encoding: 108 108 50
Width: 104
Flags: HW
LayerCount: 2
Fore
SplineSet
0 788 m 9
 0 788 1 744 0 744 c 8
 -1 744 41 786 49 790 c 4
 57 794 0 788 0 788 c 9
0 0 m 5
 0 0 49 788 49 790 c 8
 49 792 99 -4 99 0 c 4
 99 4 0 0 0 0 c 5
EndSplineSet
EndChar

StartChar: m
Encoding: 109 109 51
Width: 569
Flags: HW
LayerCount: 2
Fore
SplineSet
320 239 m 9
 495 292 l 1
 495 292 467 -6 467 -3.24956142016 c 8
 467 2 569 -6 569 -1.33257053186 c 8
 569 2 517 396 517 396 c 1
 320 239 l 9
24.99 196 m 9
 277 294 l 25
 277 294 249 -4 249 -1.24956142016 c 8
 249 4 351 -4 351 0.667429468139 c 8
 351 4 299 398 299 398 c 25
 24.99 196 l 9
0 0 m 1
 24.99 196 l 0
 51 400 l 9
 99 0 l 25
 0 0 l 1
EndSplineSet
EndChar

StartChar: t
Encoding: 116 116 52
Width: 202
Flags: HW
LayerCount: 2
Fore
SplineSet
0 698 m 25
 0 600 l 25
 198 648 l 25
 0 698 l 25
54 0 m 9
 102 800 l 25
 102 800 152 -2 152 0 c 0
 152 2 54 0 54 0 c 9
EndSplineSet
EndChar

StartChar: h
Encoding: 104 104 53
Width: 352
Flags: HW
LayerCount: 2
Fore
SplineSet
24.99 196 m 9
 277 294 l 25
 277 294 249 -4 249 0 c 8
 249 4 351 -4 351 0 c 8
 351 4 299 398 299 398 c 25
 24.99 196 l 9
0 0 m 5
 24.99 196 l 4
 51 802 l 13
 99 0 l 5
 0 0 l 5
EndSplineSet
EndChar

StartChar: g
Encoding: 103 103 54
Width: 400
Flags: HW
LayerCount: 2
Fore
SplineSet
187 -100 m 5
 187 -100 299 -254 300 -250 c 4
 301 -246 405 -250 403 -250 c 4
 401 -250 187 -100 187 -100 c 5
300 -250 m 5
 330 352 l 5
 403 -250 l 5
 300 -250 l 5
175.219726562 105 m 4
 165.11328125 105.551757812 78.4404296875 100.719726562 83.1201171875 201.599609375 c 4
 87.7998046875 302.48046875 172.8125 302.693359375 177.219726562 302.559570312 c 4
 194.379882812 302.040039062 285.790039062 314.499023438 295 197 c 4
 304.209960938 79.4892578125 177.581054688 104.87109375 175.219726562 105 c 4
178 402.919921875 m 4
 82.83984375 402.919921875 12.919921875 379.440429688 2 201.080078125 c 4
 -8.4931640625 29.685546875 111.541992188 1 172.879882812 1 c 4
 236.059570312 1 387.579101562 -8.689453125 373 195.959960938 c 4
 358.959960938 393.040039062 273.16015625 402.919921875 178 402.919921875 c 4
EndSplineSet
EndChar

StartChar: f
Encoding: 102 102 55
Width: 264
Flags: HW
LayerCount: 2
Fore
SplineSet
0 542 m 1
 0 542 -4 460 0 460 c 0
 4 460 200 498 200 498 c 25
 0 542 l 1
48 802 m 1
 258 704 l 1
 52 730 l 1
 48 802 l 1
0 0 m 9
 48 802 l 25
 100 0 l 25
 0 0 l 9
EndSplineSet
EndChar

StartChar: c
Encoding: 99 99 56
Width: 319
Flags: HW
LayerCount: 2
Fore
SplineSet
294.552734375 226.831054688 m 4
 294.131835938 225.009765625 201.013671875 408.416015625 100.338867188 258.15234375 c 4
 50.1181640625 183.1953125 98.212890625 67.931640625 196.26171875 72.54296875 c 4
 290.8984375 76.9921875 308.763671875 150.846679688 308.763671875 150.846679688 c 5
 308.763671875 150.846679688 321.716796875 77.4150390625 300.474609375 47.6015625 c 4
 283.34765625 23.5634765625 180.387695312 -30.0048828125 102.95703125 18.6005859375 c 4
 -57.033203125 119.026367188 0.521484375 295.275390625 79.8642578125 355.018554688 c 4
 198.120117188 444.061523438 325.341796875 360.23828125 294.552734375 226.831054688 c 4
EndSplineSet
EndChar

StartChar: zero
Encoding: 48 48 57
Width: 504
Flags: HW
LayerCount: 2
Fore
SplineSet
0 0 m 13
 429 786 l 25
 429 786 503 704 504 704 c 0
 505 704 0 0 0 0 c 13
249 200 m 0
 236.043310551 201.060282282 98 207 104 401 c 8
 110 595 243.348980568 603.25686452 249 603 c 0
 271 602 388.192781151 625.959265318 400 400 c 0
 411.808393613 174.018252772 252.027499649 199.752251202 249 200 c 0
250 796 m 0
 128 796 14 743 0 400 c 0
 -13.453237714 70.3956760068 167.361586995 0 246 0 c 0
 327 0 518.691332626 4.44360749103 500 398 c 0
 482 777 372 796 250 796 c 0
EndSplineSet
EndChar

StartChar: one
Encoding: 49 49 58
Width: 200
Flags: HW
LayerCount: 2
Fore
SplineSet
97 800 m 13
 97 800 3 636 0 636 c 8
 -3 636 1 538 0 538 c 0
 -1 538 97 800 97 800 c 13
0 0 m 9
 97 800 l 25
 197 0 l 25
 0 0 l 9
EndSplineSet
EndChar

StartChar: two
Encoding: 50 50 59
Width: 500
Flags: HW
LayerCount: 2
Fore
SplineSet
0 0 m 13
 0 0 501 -2 500 0 c 12
 499 2 501 102 500 102 c 4
 499 102 0 0 0 0 c 13
155 520 m 5
 155 520 184.983398438 504 185 505 c 4
 189 753 519.27734375 781.25 494 785 c 4
 103 843 153 644 155 520 c 5
0 0 m 5
 500 790 l 29
 199 0 l 5
 0 0 l 5
EndSplineSet
EndChar

StartChar: three
Encoding: 51 51 60
Width: 496
Flags: HW
LayerCount: 2
Fore
SplineSet
0 0 m 5
 255 170 l 5
 0 382 l 5
 0 0 l 5
0 382 m 5
 259 581 l 5
 0 800 l 5
 0 382 l 5
0 0 m 5
 0.189628714521 -0.142222488972 -0.0942517560348 797.820674212 0 800 c 4
 0.129623210675 802.997198329 393 582 393 582 c 5
 203 390 l 5
 427 160 l 5
 0 0 l 5
EndSplineSet
EndChar

StartChar: four
Encoding: 52 52 61
Width: 466
Flags: HW
LayerCount: 2
Fore
SplineSet
56 330 m 1
 306 346 l 1
 424 764 l 25
 56 330 l 1
422 333 m 5
 0 296 l 5
 0 296 374 798 364 799 c 4
 354 800 422 333 422 333 c 5
364 800 m 1024
364 800 m 1025
463 0 m 9
 364 800 l 25
 364 800 262 -2 262 0 c 0
 262 2 463 0 463 0 c 9
EndSplineSet
EndChar

StartChar: seven
Encoding: 55 55 62
Width: 500
Flags: HW
LayerCount: 2
Fore
SplineSet
0 800 m 9
 0 800 1 704 0 704 c 8
 -1 704 497 802 497 798 c 0
 497 794 0 800 0 800 c 9
0 0 m 9
 497 798 l 25
 199 0 l 25
 0 0 l 9
EndSplineSet
EndChar

StartChar: eight
Encoding: 56 56 63
Width: 486
Flags: HW
LayerCount: 2
Fore
SplineSet
238 0 m 1
 308 170 l 1
 238 382 l 1
 238 0 l 1
238 382 m 1
 312 581 l 1
 238 800 l 1
 238 382 l 1
238 0 m 1
 238.189453125 -0.142578125 237.905273438 797.8203125 237.956054688 798.998046875 c 0
 238.129882812 802.997070312 446 582 446 582 c 1
 256 390 l 1
 480 160 l 1
 238 0 l 1
238 0 m 1
 168 170 l 1
 238 382 l 1
 238 0 l 1
238 382 m 1
 164 581 l 1
 238 800 l 1
 238 382 l 1
238 0 m 1
 237.810546875 -0.142578125 238.094726562 797.8203125 238.043945312 798.998046875 c 0
 237.870117188 802.997070312 30 582 30 582 c 1
 220 390 l 1
 -4 160 l 1
 238 0 l 1
EndSplineSet
EndChar

StartChar: nine
Encoding: 57 57 64
Width: 400
Flags: HW
LayerCount: 2
Fore
SplineSet
42 186 m 5
 42 186 45 -4 46 0 c 4
 47 4 400 2 398 2 c 4
 396 2 42 186 42 186 c 5
295 2 m 5
 330 751.080078125 l 5
 398 2 l 5
 295 2 l 5
175.219726562 504.080078125 m 4
 165.11328125 504.631835938 78.4404296875 499.799804688 83.1201171875 600.6796875 c 4
 87.7998046875 701.560546875 172.8125 701.7734375 177.219726562 701.639648438 c 4
 194.379882812 701.120117188 285.790039062 713.579101562 295 596.080078125 c 4
 304.209960938 478.569335938 177.581054688 503.951171875 175.219726562 504.080078125 c 4
178 802 m 4
 82.83984375 802 12.919921875 778.520507812 2 600.16015625 c 4
 -8.4931640625 428.765625 111.541992188 400.080078125 172.879882812 400.080078125 c 4
 236.059570312 400.080078125 387.579101562 390.390625 373 595.040039062 c 4
 358.959960938 792.120117188 273.16015625 802 178 802 c 4
EndSplineSet
EndChar

StartChar: six
Encoding: 54 54 65
Width: 400
Flags: HW
LayerCount: 2
Fore
SplineSet
357 618.080078125 m 1
 357 618.080078125 354 808.080078125 353 804.080078125 c 0
 352 800.080078125 -1 802.080078125 1 802.080078125 c 0
 3 802.080078125 357 618.080078125 357 618.080078125 c 1
104 802.080078125 m 1
 69 53 l 1
 1 802.080078125 l 1
 104 802.080078125 l 1
223.780273438 300 m 0
 233.88671875 299.448242188 320.559570312 304.280273438 315.879882812 203.400390625 c 0
 311.200195312 102.51953125 226.1875 102.306640625 221.780273438 102.440429688 c 0
 204.620117188 102.959960938 113.209960938 90.5009765625 104 208 c 0
 94.7900390625 325.510742188 221.418945312 300.12890625 223.780273438 300 c 0
221 2.080078125 m 0
 316.16015625 2.080078125 386.080078125 25.5595703125 397 203.919921875 c 0
 407.493164062 375.314453125 287.458007812 404 226.120117188 404 c 0
 162.940429688 404 11.4208984375 413.689453125 26 209.040039062 c 0
 40.0400390625 11.9599609375 125.83984375 2.080078125 221 2.080078125 c 0
EndSplineSet
EndChar

StartChar: five
Encoding: 53 53 66
Width: 454
Flags: HW
LayerCount: 2
Fore
SplineSet
31.0009765625 294.453125 m 0
 31.501953125 292.139648438 142.3125 525.06640625 262.115234375 334.231445312 c 0
 321.877929688 239.036132812 264.645507812 92.650390625 147.966796875 98.5068359375 c 0
 35.349609375 104.157226562 14.08984375 197.953125 14.08984375 197.953125 c 1
 14.08984375 197.953125 -1.32421875 104.694335938 23.9541015625 66.83203125 c 0
 44.3349609375 36.3037109375 166.857421875 -31.728515625 259 30 c 0
 449.387695312 157.541015625 380.897460938 381.376953125 286.479492188 457.250976562 c 0
 145.755859375 570.3359375 -5.638671875 463.879882812 31.0009765625 294.453125 c 0
31.0009765625 798 m 1
 31.0009765625 798 132.000976562 478.453125 130.000976562 480.453125 c 0
 128.000976562 482.453125 30.0009765625 382.453125 31.0009765625 382.453125 c 0
 32.0009765625 382.453125 31.0009765625 798 31.0009765625 798 c 1
31.0009765625 798 m 1
 31.0009765625 798 32.0009765625 696 31.0009765625 696 c 0
 30.0009765625 696 442.000976562 798 442.000976562 798 c 25
 31.0009765625 798 l 1
EndSplineSet
EndChar

StartChar: colon
Encoding: 58 58 67
Width: 106
Flags: HW
LayerCount: 2
Fore
SplineSet
52 243 m 5
 52 243 3 155 2 155 c 4
 1 155 102 155 102 155 c 5
 52 243 l 5
52 500 m 1
 52 500 3 588 2 588 c 0
 1 588 102 588 102 588 c 1
 52 500 l 1
EndSplineSet
EndChar

StartChar: semicolon
Encoding: 59 59 68
Width: 106
Flags: HW
LayerCount: 2
Fore
SplineSet
52 243 m 1
 52 243 3 155 2 155 c 0
 1 155 54 155 54 155 c 1
 52 243 l 1
52 500 m 5
 52 500 3 588 2 588 c 4
 1 588 102 588 102 588 c 5
 52 500 l 5
EndSplineSet
EndChar

StartChar: period
Encoding: 46 46 69
Width: 106
Flags: HW
LayerCount: 2
Fore
SplineSet
52 88 m 5
 52 88 3 0 2 0 c 4
 1 0 102 0 102 0 c 5
 52 88 l 5
EndSplineSet
EndChar

StartChar: comma
Encoding: 44 44 70
Width: 56
Flags: HW
LayerCount: 2
Fore
SplineSet
56 53 m 5
 56 53 7 -35 6 -35 c 4
 5 -35 58 -35 58 -35 c 5
 56 53 l 5
EndSplineSet
EndChar

StartChar: plus
Encoding: 43 43 71
Width: 303
Flags: HW
LayerCount: 2
Fore
SplineSet
94 208 m 29
 146 508 l 29
 196 208 l 29
 94 208 l 29
0 402 m 5
 0 402 -8 302 0 302 c 4
 8 302 300 352 300 352 c 29
 0 402 l 5
EndSplineSet
EndChar

StartChar: asterisk
Encoding: 42 42 72
Width: 135
Flags: HW
LayerCount: 2
Fore
SplineSet
64 800 m 25
 83.125 673.559570312 l 25
 23.357421875 786.453125 l 25
 64 800 l 25
127.219726562 735.186523438 m 1
 127.219726562 735.186523438 117.125976562 776.09375 113.938476562 775.03125 c 0
 110.750976562 773.96875 1.044921875 715.264648438 1.044921875 715.264648438 c 25
 127.219726562 735.186523438 l 1
EndSplineSet
EndChar

StartChar: hyphen
Encoding: 45 45 73
Width: 303
Flags: HW
LayerCount: 2
Fore
SplineSet
0 402 m 5
 0 402 -8 302 0 302 c 4
 8 302 300 352 300 352 c 29
 0 402 l 5
EndSplineSet
EndChar

StartChar: equal
Encoding: 61 61 74
Width: 303
Flags: HW
LayerCount: 2
Fore
SplineSet
0 525 m 5
 0 525 -8 425 0 425 c 4
 8 425 300 475 300 475 c 29
 0 525 l 5
0 402 m 1
 0 402 -8 302 0 302 c 0
 8 302 300 352 300 352 c 25
 0 402 l 1
EndSplineSet
EndChar

StartChar: question
Encoding: 63 63 75
Width: 500
Flags: HW
LayerCount: 2
Fore
SplineSet
86.7373046875 138 m 1
 86.7373046875 138 14.5849609375 0.5 13.1123046875 0.5 c 0
 11.6396484375 0.5 160.362304688 0.5 160.362304688 0.5 c 1
 86.7373046875 138 l 1
27 520 m 1
 27 520 56.9833984375 504 57 505 c 0
 61 753 391.27734375 781.25 366 785 c 0
 -25 843 25 644 27 520 c 1
0 225 m 1
 372 790 l 1
 199 225 l 1
 0 225 l 1
EndSplineSet
EndChar

StartChar: q
Encoding: 113 113 76
Width: 400
Flags: HW
LayerCount: 2
Fore
SplineSet
300 -250 m 1
 330 352 l 1
 403 -250 l 1
 300 -250 l 1
175.219726562 105 m 0
 165.11328125 105.551757812 78.4404296875 100.719726562 83.1201171875 201.599609375 c 0
 87.7998046875 302.48046875 172.8125 302.693359375 177.219726562 302.559570312 c 0
 194.379882812 302.040039062 285.790039062 314.499023438 295 197 c 0
 304.209960938 79.4892578125 177.581054688 104.87109375 175.219726562 105 c 0
178 402.919921875 m 0
 82.83984375 402.919921875 12.919921875 379.440429688 2 201.080078125 c 0
 -8.4931640625 29.685546875 111.541992188 1 172.879882812 1 c 0
 236.059570312 1 387.579101562 -8.689453125 373 195.959960938 c 0
 358.959960938 393.040039062 273.16015625 402.919921875 178 402.919921875 c 0
EndSplineSet
EndChar

StartChar: x
Encoding: 120 120 77
Width: 303
Flags: HW
LayerCount: 2
Fore
SplineSet
299 0 m 25
 299 0 -1 400 0 400 c 8
 1 400 199 -2 199 0 c 0
 199 2 260 0 299 0 c 25
0 0 m 9
 299 400 l 25
 299 400 99 -2 99 0 c 0
 99 2 0 0 0 0 c 9
EndSplineSet
EndChar

StartChar: X
Encoding: 88 88 78
Width: 514
Flags: HW
LayerCount: 2
Fore
SplineSet
499 0 m 9
 499 0 3 800 0 800 c 8
 -3 800 299 -2 299 0 c 0
 299 2 499 0 499 0 c 9
0 0 m 9
 499 798 l 25
 499 798 197 -2 197 0 c 0
 197 2 0 0 0 0 c 9
EndSplineSet
EndChar

